<svg width="23" height="13" viewBox="0 0 23 13" fill="none" xmlns="http://www.w3.org/2000/svg">
<path d="M8.25781 3.13281C8.25781 3.84635 8.04167 4.45312 7.60938 4.95312C7.17708 5.45312 6.57031 5.79688 5.78906 5.98438V6.03125C6.71094 6.14583 7.40885 6.42708 7.88281 6.875C8.35677 7.31771 8.59375 7.91667 8.59375 8.67188C8.59375 9.77083 8.19531 10.6276 7.39844 11.2422C6.60156 11.8516 5.46354 12.1562 3.98438 12.1562C2.74479 12.1562 1.64583 11.9505 0.6875 11.5391V9.48438C1.13021 9.70833 1.61719 9.89062 2.14844 10.0312C2.67969 10.1719 3.20573 10.2422 3.72656 10.2422C4.52344 10.2422 5.11198 10.1068 5.49219 9.83594C5.8724 9.5651 6.0625 9.13021 6.0625 8.53125C6.0625 7.99479 5.84375 7.61458 5.40625 7.39062C4.96875 7.16667 4.27083 7.05469 3.3125 7.05469H2.44531V5.20312H3.32812C4.21354 5.20312 4.85938 5.08854 5.26562 4.85938C5.67708 4.625 5.88281 4.22656 5.88281 3.66406C5.88281 2.79948 5.34115 2.36719 4.25781 2.36719C3.88281 2.36719 3.5 2.42969 3.10938 2.55469C2.72396 2.67969 2.29427 2.89583 1.82031 3.20312L0.703125 1.53906C1.74479 0.789062 2.98698 0.414062 4.42969 0.414062C5.61198 0.414062 6.54427 0.653646 7.22656 1.13281C7.91406 1.61198 8.25781 2.27865 8.25781 3.13281ZM10.1328 10.8828C10.1328 10.4453 10.25 10.1146 10.4844 9.89062C10.7188 9.66667 11.0599 9.55469 11.5078 9.55469C11.9401 9.55469 12.2734 9.66927 12.5078 9.89844C12.7474 10.1276 12.8672 10.4557 12.8672 10.8828C12.8672 11.2943 12.7474 11.6198 12.5078 11.8594C12.2682 12.0938 11.9349 12.2109 11.5078 12.2109C11.0703 12.2109 10.7318 12.0964 10.4922 11.8672C10.2526 11.6328 10.1328 11.3047 10.1328 10.8828ZM18.3594 0.429688C19.4531 0.429688 20.3333 0.679688 21 1.17969C21.6719 1.67448 22.0078 2.34375 22.0078 3.1875C22.0078 3.77083 21.8464 4.29167 21.5234 4.75C21.2005 5.20312 20.6797 5.60938 19.9609 5.96875C20.8151 6.42708 21.4271 6.90625 21.7969 7.40625C22.1719 7.90104 22.3594 8.44531 22.3594 9.03906C22.3594 9.97656 21.9922 10.7318 21.2578 11.3047C20.5234 11.8724 19.5573 12.1562 18.3594 12.1562C17.1094 12.1562 16.1276 11.8906 15.4141 11.3594C14.7005 10.8281 14.3438 10.0755 14.3438 9.10156C14.3438 8.45052 14.5156 7.8724 14.8594 7.36719C15.2083 6.86198 15.7656 6.41667 16.5312 6.03125C15.8802 5.61979 15.4115 5.17969 15.125 4.71094C14.8385 4.24219 14.6953 3.72917 14.6953 3.17188C14.6953 2.35417 15.0339 1.69271 15.7109 1.1875C16.388 0.682292 17.2708 0.429688 18.3594 0.429688ZM16.5781 8.96094C16.5781 9.40885 16.7344 9.75781 17.0469 10.0078C17.3594 10.2578 17.7865 10.3828 18.3281 10.3828C18.9271 10.3828 19.375 10.2552 19.6719 10C19.9688 9.73958 20.1172 9.39844 20.1172 8.97656C20.1172 8.6276 19.9688 8.30208 19.6719 8C19.3802 7.69271 18.9036 7.36719 18.2422 7.02344C17.1328 7.53385 16.5781 8.17969 16.5781 8.96094ZM18.3438 2.19531C17.9323 2.19531 17.599 2.30208 17.3438 2.51562C17.0938 2.72396 16.9688 3.00521 16.9688 3.35938C16.9688 3.67188 17.0677 3.95312 17.2656 4.20312C17.4688 4.44792 17.8333 4.70052 18.3594 4.96094C18.8698 4.72135 19.2266 4.47656 19.4297 4.22656C19.6328 3.97656 19.7344 3.6875 19.7344 3.35938C19.7344 3 19.6042 2.71615 19.3438 2.50781C19.0833 2.29948 18.75 2.19531 18.3438 2.19531Z" fill="#FFBB3A"/>
</svg>
